<svg id="Сгруппировать_19" data-name="Сгруппировать 19" xmlns="http://www.w3.org/2000/svg" width="36.896" height="39.977" viewBox="0 0 36.896 39.977">
  <g id="Сгруппировать_17" data-name="Сгруппировать 17" transform="translate(0 0)">
    <path id="Контур_42" data-name="Контур 42" d="M466.524,6.352a6.843,6.843,0,0,1,2.674.477c.027.013,2.733,1.24,5.687,2.981s5.347,3.515,5.37,3.533a8.086,8.086,0,0,1,2.7,4.776c0,.03.315,3.038.315,6.52s-.312,6.492-.315,6.521a8.074,8.074,0,0,1-2.7,4.776c-.024.018-2.419,1.8-5.371,3.538s-5.659,2.964-5.685,2.976a7.727,7.727,0,0,1-5.351,0c-.027-.012-2.725-1.233-5.686-2.976s-5.348-3.521-5.373-3.539a8.078,8.078,0,0,1-2.7-4.774c0-.031-.315-3.038-.315-6.522s.312-6.49.315-6.52a8.08,8.08,0,0,1,2.7-4.777c.024-.018,2.408-1.79,5.371-3.534s5.659-2.967,5.686-2.979a6.854,6.854,0,0,1,2.675-.476m0-1.7a8.5,8.5,0,0,0-3.375.628s-2.774,1.251-5.85,3.065-5.524,3.634-5.524,3.634A9.792,9.792,0,0,0,448.4,17.94s-.325,3.076-.325,6.7.325,6.7.325,6.7a9.79,9.79,0,0,0,3.374,5.96s2.45,1.826,5.525,3.639S463.15,44,463.15,44a9.374,9.374,0,0,0,6.749,0s2.774-1.251,5.848-3.062,5.526-3.639,5.526-3.639a9.794,9.794,0,0,0,3.374-5.961s.325-3.076.325-6.7-.325-6.7-.325-6.7a9.789,9.789,0,0,0-3.375-5.962s-2.449-1.825-5.523-3.635S469.9,5.278,469.9,5.278a8.5,8.5,0,0,0-3.373-.628" transform="translate(-448.076 -4.65)" fill="#2862ac" fill-rule="evenodd"/>
  </g>
  <g id="Сгруппировать_18" data-name="Сгруппировать 18" transform="translate(11.253 10.423)">
    <path id="Контур_43" data-name="Контур 43" d="M483.622,27.3V41.65l-.6-.374-.822.448-1.943,1.121-1.868-1.121-.822-.448-.747.523-1.42.9-1.42-.972-.822-.523-.747.523V27.3h11.211m0-1.495H472.411a1.5,1.5,0,0,0-1.495,1.495V44.49L473.158,43,475.4,44.49,477.643,43l2.616,1.495L482.949,43l2.168,1.495V27.3A1.5,1.5,0,0,0,483.622,25.805Z" transform="translate(-470.916 -25.805)" fill="#2862ac"/>
    <path id="Контур_44" data-name="Контур 44" d="M479.107,32.025h5.98V33.52h-5.98Zm0,2.99h5.98v1.495h-5.98Zm0,2.99h5.98V39.5h-5.98Z" transform="translate(-475.071 -28.96)" fill="#2862ac"/>
  </g>
</svg>
