<svg id="Сгруппировать_11" data-name="Сгруппировать 11" xmlns="http://www.w3.org/2000/svg" width="36.896" height="39.977" viewBox="0 0 36.896 39.977">
  <g id="Сгруппировать_9" data-name="Сгруппировать 9" transform="translate(0 0)">
    <path id="Контур_31" data-name="Контур 31" d="M189.994,5.692a6.843,6.843,0,0,1,2.674.477c.027.013,2.733,1.24,5.687,2.981s5.347,3.515,5.37,3.533a8.086,8.086,0,0,1,2.7,4.776c0,.03.315,3.038.315,6.52s-.312,6.492-.315,6.521a8.074,8.074,0,0,1-2.7,4.776c-.024.018-2.419,1.8-5.371,3.538s-5.659,2.964-5.685,2.976a7.727,7.727,0,0,1-5.351,0c-.027-.012-2.725-1.233-5.686-2.976s-5.348-3.521-5.373-3.539a8.078,8.078,0,0,1-2.7-4.774c0-.031-.315-3.038-.315-6.522s.312-6.49.315-6.52a8.08,8.08,0,0,1,2.7-4.777c.024-.018,2.408-1.79,5.371-3.534s5.659-2.967,5.686-2.979a6.854,6.854,0,0,1,2.675-.476m0-1.7a8.5,8.5,0,0,0-3.375.628s-2.774,1.251-5.85,3.065-5.524,3.634-5.524,3.634a9.792,9.792,0,0,0-3.375,5.963s-.325,3.076-.325,6.7.325,6.7.325,6.7a9.79,9.79,0,0,0,3.374,5.96s2.45,1.826,5.525,3.639,5.85,3.062,5.85,3.062a9.374,9.374,0,0,0,6.749,0s2.774-1.251,5.848-3.062,5.526-3.639,5.526-3.639a9.794,9.794,0,0,0,3.374-5.961s.325-3.076.325-6.7-.325-6.7-.325-6.7a9.789,9.789,0,0,0-3.375-5.962s-2.449-1.825-5.523-3.635-5.851-3.065-5.851-3.065a8.5,8.5,0,0,0-3.373-.628" transform="translate(-171.546 -3.99)" fill="#2862ac" fill-rule="evenodd"/>
  </g>
  <g id="Сгруппировать_10" data-name="Сгруппировать 10" transform="translate(10.862 11.562)">
    <path id="Контур_32" data-name="Контур 32" d="M193.6,35.9c0-2.458.012-4.916-.007-7.374a1.021,1.021,0,0,1,1.067-1.071q6.579.018,13.158,0a1.023,1.023,0,0,1,1.05,1.054q-.019,7.39,0,14.78a1.017,1.017,0,0,1-1.042,1.046q-6.6-.016-13.191-.006a.949.949,0,0,1-1.035-1.039Q193.6,39.6,193.6,35.9Zm7.644-6.985H195.56c-.382,0-.542.159-.543.551q0,1.144,0,2.288c0,.4.161.554.556.554h11.32c.393,0,.55-.157.551-.559q0-1.135,0-2.271c0-.408-.158-.562-.565-.563ZM205.2,40.039q0,1.168,0,2.335c0,.361.145.5.506.505h1.172c.4,0,.562-.156.564-.564,0-.548,0-1.1,0-1.645,0-.981,0-1.962,0-2.943a.47.47,0,0,0-.529-.539c-.4,0-.8,0-1.2,0-.35,0-.507.163-.507.514Q205.2,38.872,205.2,40.039ZM197.258,34.9c0-.225,0-.45,0-.675a.423.423,0,0,0-.446-.458c-.439-.006-.879,0-1.318,0a.427.427,0,0,0-.466.427c-.016.471-.015.944,0,1.415a.409.409,0,0,0,.419.419q.7.01,1.4,0a.407.407,0,0,0,.41-.42C197.262,35.371,197.258,35.135,197.258,34.9Zm0,3.434h0c0-.2,0-.406,0-.609,0-.375-.152-.532-.521-.535-.4,0-.793,0-1.189,0a.471.471,0,0,0-.532.537q0,.592,0,1.185a.929.929,0,0,0,.029.227.406.406,0,0,0,.391.313c.467,0,.934.006,1.4,0a.4.4,0,0,0,.418-.428C197.262,38.794,197.258,38.563,197.258,38.333ZM205.2,34.9v.641c0,.011,0,.022,0,.033a.42.42,0,0,0,.457.459q.651.005,1.3,0a.431.431,0,0,0,.476-.45q.021-.682,0-1.365a.432.432,0,0,0-.449-.447q-.675-.01-1.351,0a.42.42,0,0,0-.433.454C205.2,34.446,205.2,34.671,205.2,34.9Zm-4.556.014c0-.214,0-.428,0-.641a.441.441,0,0,0-.5-.5q-.594,0-1.188,0c-.375,0-.544.168-.551.552,0,.252,0,.5,0,.757,0,.165-.006.33,0,.493a.442.442,0,0,0,.482.463c.439,0,.879,0,1.318,0a.407.407,0,0,0,.436-.444C200.649,35.36,200.646,35.135,200.647,34.91Zm1.168,0c0,.214,0,.428,0,.641a.422.422,0,0,0,.481.482c.407,0,.814,0,1.221,0,.367,0,.529-.153.537-.527.008-.405,0-.811,0-1.217a.7.7,0,0,0-.019-.146.426.426,0,0,0-.447-.373c-.445,0-.89-.006-1.335,0a.417.417,0,0,0-.437.448C201.811,34.445,201.815,34.676,201.814,34.906Zm-1.168,3.432h0c0-.208,0-.416,0-.625,0-.364-.155-.521-.515-.524-.39,0-.781,0-1.172,0s-.549.168-.554.549c0,.4,0,.8,0,1.2a.757.757,0,0,0,.02.163.412.412,0,0,0,.413.35c.467.006.933.007,1.4,0a.4.4,0,0,0,.406-.422C200.65,38.8,200.646,38.569,200.646,38.338Zm-4.51,4.541c.223,0,.445,0,.668,0a.414.414,0,0,0,.454-.46q0-.658,0-1.316a.432.432,0,0,0-.47-.486q-.642-.01-1.285,0a.457.457,0,0,0-.484.485c-.007.2,0,.4,0,.592,0,.241-.007.483,0,.724a.44.44,0,0,0,.481.462C195.714,42.881,195.925,42.879,196.136,42.879Zm4.51-1.119h0c0-.208,0-.417,0-.625,0-.362-.156-.518-.519-.52q-.586,0-1.172,0c-.374,0-.546.172-.55.555s0,.79,0,1.184a.842.842,0,0,0,.022.179.412.412,0,0,0,.416.345q.692.006,1.383,0a.4.4,0,0,0,.418-.427C200.65,42.221,200.646,41.99,200.646,41.76Zm2.269,1.12c.212,0,.423,0,.635,0a.453.453,0,0,0,.5-.491c.008-.214,0-.428,0-.641s.005-.417,0-.625c-.012-.305-.162-.492-.433-.5q-.7-.021-1.4,0a.4.4,0,0,0-.4.444q-.006.691,0,1.382a.4.4,0,0,0,.432.429C202.471,42.882,202.693,42.879,202.916,42.88Zm-1.1-4.552c0,.214,0,.428,0,.641,0,.331.151.483.478.485q.619,0,1.237,0a.46.46,0,0,0,.526-.52c.005-.4,0-.8,0-1.2a.848.848,0,0,0-.03-.21.408.408,0,0,0-.383-.327c-.472-.01-.944-.013-1.415,0a.41.41,0,0,0-.411.456C201.812,37.877,201.814,38.1,201.814,38.327Z" transform="translate(-193.593 -27.458)" fill="#2862ac"/>
    <path id="Контур_33" data-name="Контур 33" d="M213.621,33.826c-.184,0-.368.006-.551,0a.243.243,0,0,1-.251-.249,5.419,5.419,0,0,1,0-.95.238.238,0,0,1,.234-.247,7.486,7.486,0,0,1,1.151,0,.232.232,0,0,1,.232.23,4.964,4.964,0,0,1,0,.983.241.241,0,0,1-.231.232A3.306,3.306,0,0,1,213.621,33.826Zm.01-1.2c-.125,0-.249,0-.374,0-.087,0-.13.036-.129.127q0,.328,0,.657c0,.087.036.133.126.133H214a.112.112,0,0,0,.129-.129c0-.219,0-.438,0-.657,0-.1-.05-.134-.142-.131C213.868,32.631,213.749,32.628,213.63,32.629Z" transform="translate(-203.336 -29.943)" fill="#2862ac"/>
    <path id="Контур_34" data-name="Контур 34" d="M209.294,33.834c-.168,0-.337.009-.5,0-.225-.016-.3-.1-.3-.325,0-.274,0-.548,0-.823,0-.21.059-.288.26-.307a7.4,7.4,0,0,1,1.106,0,.256.256,0,0,1,.262.278c.007.3.011.592,0,.888-.007.2-.075.268-.27.285s-.369,0-.553,0Zm0-1.207c-.119,0-.238,0-.357,0-.093,0-.143.03-.141.131,0,.219,0,.438,0,.657a.112.112,0,0,0,.129.129c.157,0,.314,0,.471,0,.461,0,.4.057.4-.413C209.8,32.628,209.8,32.628,209.291,32.628Z" transform="translate(-201.148 -29.942)" fill="#2862ac"/>
    <path id="Контур_35" data-name="Контур 35" d="M217.993,32.369c.163,0,.326-.008.488,0,.234.015.308.1.311.332q0,.4,0,.806c0,.228-.073.319-.3.327-.341.013-.684.012-1.025,0-.223-.009-.3-.088-.307-.3-.01-.285-.01-.571,0-.855.007-.2.086-.285.293-.3.178-.014.358,0,.537,0Zm-.006,1.18h0c.119,0,.238,0,.357,0,.092,0,.144-.031.143-.132q0-.329,0-.657c0-.09-.039-.129-.128-.129q-.374,0-.747,0c-.088,0-.129.04-.128.129q0,.328,0,.657a.114.114,0,0,0,.129.131Z" transform="translate(-205.546 -29.948)" fill="#2862ac"/>
  </g>
</svg>
