<svg id="Сгруппировать_16" data-name="Сгруппировать 16" xmlns="http://www.w3.org/2000/svg" width="36.896" height="39.977" viewBox="0 0 36.896 39.977">
  <g id="Сгруппировать_14" data-name="Сгруппировать 14" transform="translate(0 0)">
    <path id="Контур_39" data-name="Контур 39" d="M375.72,6.352a6.843,6.843,0,0,1,2.674.477c.027.013,2.733,1.24,5.687,2.981s5.347,3.515,5.37,3.533a8.086,8.086,0,0,1,2.7,4.776c0,.03.315,3.038.315,6.52s-.312,6.492-.315,6.521a8.074,8.074,0,0,1-2.7,4.776c-.024.018-2.419,1.8-5.371,3.538s-5.659,2.964-5.685,2.976a7.727,7.727,0,0,1-5.351,0c-.027-.012-2.725-1.233-5.686-2.976s-5.348-3.521-5.373-3.539a8.078,8.078,0,0,1-2.7-4.774c0-.031-.315-3.038-.315-6.522s.312-6.49.315-6.52a8.08,8.08,0,0,1,2.7-4.777c.024-.018,2.408-1.79,5.371-3.534s5.659-2.967,5.686-2.979a6.855,6.855,0,0,1,2.675-.476m0-1.7a8.5,8.5,0,0,0-3.375.628s-2.774,1.251-5.85,3.065-5.524,3.634-5.524,3.634A9.792,9.792,0,0,0,357.6,17.94s-.325,3.076-.325,6.7.325,6.7.325,6.7a9.79,9.79,0,0,0,3.374,5.96s2.45,1.826,5.525,3.639S372.346,44,372.346,44a9.374,9.374,0,0,0,6.749,0s2.774-1.251,5.848-3.062,5.526-3.639,5.526-3.639a9.794,9.794,0,0,0,3.374-5.961s.325-3.076.325-6.7-.325-6.7-.325-6.7a9.789,9.789,0,0,0-3.375-5.962s-2.449-1.825-5.523-3.635-5.851-3.065-5.851-3.065a8.5,8.5,0,0,0-3.373-.628" transform="translate(-357.272 -4.65)" fill="#2862ac" fill-rule="evenodd"/>
  </g>
  <g id="Сгруппировать_15" data-name="Сгруппировать 15" transform="translate(12.588 12.622)">
    <path id="Контур_40" data-name="Контур 40" d="M383.959,40.385c-.255-.587-.507-1.155-.748-1.728-.068-.161-.1-.336-.157-.5a1.41,1.41,0,0,1,.036-1.03q.429-.981.895-1.947c.2-.426.443-.835.653-1.258a1.534,1.534,0,0,1,.661-.674,7.3,7.3,0,0,1,1.858-.618c1.149-.276,2.3-.539,3.442-.843a12.134,12.134,0,0,0,2.662-1.147,6.8,6.8,0,0,1,.707-.319.709.709,0,0,1,.669.087,3.343,3.343,0,0,1,1.01,1.1,6.719,6.719,0,0,1,1.012,2.491,3.343,3.343,0,0,1,.016.775.565.565,0,0,1-.313.422c-.28.176-.568.342-.834.539a3.838,3.838,0,0,0-.993,1.168c-.2.333-.371.679-.549,1.024a3.053,3.053,0,0,1-1.371,1.247,8.8,8.8,0,0,1-1.938.723,2.881,2.881,0,0,0-1.074.568,15.614,15.614,0,0,1-1.658,1.22,5.764,5.764,0,0,1-1.962.749,1.121,1.121,0,0,1-1.42-.816,1.468,1.468,0,0,1,.159-1.033,2.751,2.751,0,0,1,.964-1.182c.665-.446,1.358-.849,2.038-1.273.179-.111.355-.228.527-.35a2.081,2.081,0,0,0,.724-1.264.2.2,0,0,0-.067-.15c-.2-.2-.409-.393-.624-.577a.314.314,0,0,0-.22-.064c-.45.062-.9.14-1.349.2a.268.268,0,0,0-.23.167,3.767,3.767,0,0,1-.954,1.244.186.186,0,0,0-.06.249c.1.236.178.476.277.71a.19.19,0,0,1-.086.271,4.643,4.643,0,0,0-1.132.98C384.336,39.8,384.169,40.075,383.959,40.385Z" transform="translate(-382.899 -30.269)" fill="#2862ac"/>
    <path id="Контур_41" data-name="Контур 41" d="M387.531,54.549a2.626,2.626,0,0,1-.706,3.6A2.584,2.584,0,0,1,383.8,53.97c.019.037.039.07.054.107a1.671,1.671,0,0,0,1.57,1.046,5.117,5.117,0,0,0,1.738-.427C387.281,54.651,387.4,54.6,387.531,54.549Z" transform="translate(-382.821 -42.293)" fill="#2862ac"/>
  </g>
  <rect id="Прямоугольник_576" data-name="Прямоугольник 576" width="1.393" height="21.887" transform="translate(10.554 11.408) rotate(-45)" fill="#2862ac"/>
</svg>
