<svg xmlns="http://www.w3.org/2000/svg" width="36.896" height="39.977" viewBox="0 0 36.896 39.977">
  <g id="Сгруппировать_13" data-name="Сгруппировать 13" transform="translate(0)">
    <g id="Сгруппировать_12" data-name="Сгруппировать 12" transform="translate(0 0)">
      <path id="Контур_36" data-name="Контур 36" d="M281.284,5.692a6.843,6.843,0,0,1,2.674.477c.027.013,2.733,1.24,5.687,2.981s5.347,3.515,5.37,3.533a8.086,8.086,0,0,1,2.7,4.776c0,.03.315,3.038.315,6.52s-.312,6.492-.315,6.521a8.074,8.074,0,0,1-2.7,4.776c-.024.018-2.419,1.8-5.371,3.538s-5.659,2.964-5.685,2.976a7.727,7.727,0,0,1-5.351,0c-.027-.012-2.725-1.233-5.686-2.976s-5.348-3.521-5.373-3.539a8.078,8.078,0,0,1-2.7-4.774c0-.031-.315-3.038-.315-6.522s.312-6.49.315-6.52a8.08,8.08,0,0,1,2.7-4.777c.024-.018,2.408-1.79,5.371-3.534s5.659-2.967,5.686-2.979a6.854,6.854,0,0,1,2.675-.476m0-1.7a8.5,8.5,0,0,0-3.375.628s-2.774,1.251-5.85,3.065-5.524,3.634-5.524,3.634a9.791,9.791,0,0,0-3.375,5.963s-.325,3.076-.325,6.7.325,6.7.325,6.7a9.79,9.79,0,0,0,3.374,5.96s2.45,1.826,5.525,3.639,5.85,3.062,5.85,3.062a9.374,9.374,0,0,0,6.749,0s2.774-1.251,5.848-3.062,5.526-3.639,5.526-3.639a9.794,9.794,0,0,0,3.374-5.961s.325-3.076.325-6.7-.325-6.7-.325-6.7a9.789,9.789,0,0,0-3.375-5.962s-2.449-1.825-5.523-3.635-5.851-3.065-5.851-3.065a8.5,8.5,0,0,0-3.373-.628" transform="translate(-262.836 -3.99)" fill="#2862ac" fill-rule="evenodd"/>
    </g>
    <path id="Контур_37" data-name="Контур 37" d="M297.087,35.881a7.5,7.5,0,0,0-4.226,1.691c-1.208,1.026-.785,3.5.423,8.393-1.208-1.57-1.932-2.294-2.6-2.536l-.362-.121-.363.121c-.785.181-1.509.966-2.838,2.657,1.208-4.951,1.63-7.366.423-8.453a7.275,7.275,0,0,0-4.347-1.751h13.887m2.415-1.208H280.785v2.415a10.288,10.288,0,0,1,1.147-.06,7.675,7.675,0,0,1,4.77,1.449c1.328,1.147-2.114,10.868-1.57,11.412l.061.06c.724,0,3.985-5.132,5.072-5.374,1.087.423,4.287,5.374,4.951,5.374.061,0,.061,0,.061-.06.483-.483-2.9-10.2-1.57-11.352a7.41,7.41,0,0,1,4.71-1.449,10.22,10.22,0,0,1,1.147.061Z" transform="translate(-271.942 -19.556)" fill="#2862ac"/>
    <path id="Контур_38" data-name="Контур 38" d="M296.05,23.381a2.415,2.415,0,1,1-2.415,2.415,2.422,2.422,0,0,1,2.415-2.415m0-1.208a3.623,3.623,0,1,0,3.623,3.623A3.633,3.633,0,0,0,296.05,22.173Z" transform="translate(-277.848 -13.214)" fill="#2862ac"/>
  </g>
</svg>
