<svg xmlns="http://www.w3.org/2000/svg" width="38.761" height="42" viewBox="0 0 38.761 42">
  <g id="Сгруппировать_337" data-name="Сгруппировать 337" transform="translate(-1008.362 -1093.082)">
    <g id="Сгруппировать_336" data-name="Сгруппировать 336" transform="translate(1020.323 1106.662)">
      <path id="Контур_3972" data-name="Контур 3972" d="M1107.53,1196.259q0,3.577,0,7.153c0,.255,0,.255-.245.255h-14.325c-.268,0-.269,0-.269-.268q0-7.163,0-14.325c0-.245,0-.246.254-.246h14.307c.278,0,.278,0,.278.277Q1107.53,1192.682,1107.53,1196.259Zm-7.417-6.469c-2.078,0-4.155,0-6.233,0-.186,0-.231.055-.231.235q.007,6.233,0,12.466c0,.177.054.222.226.221q6.233-.006,12.466,0c.186,0,.231-.055.231-.235q-.008-6.224,0-12.448c0-.236,0-.237-.24-.237Z" transform="translate(-1092.69 -1188.828)" fill="#2862ac"/>
      <path id="Контур_3973" data-name="Контур 3973" d="M1111.248,1241.305h-5.274c-.289,0-.29,0-.29-.288,0-.771,0-1.541,0-2.312a.567.567,0,0,1,.123-.365q1.277-1.694,2.545-3.4c.1-.139.163-.145.286-.021.821.831,1.651,1.652,2.472,2.483a.251.251,0,0,0,.354.058c.495-.261,1-.5,1.5-.758a.206.206,0,0,1,.282.047q1.733,1.741,3.473,3.474a.363.363,0,0,1,.12.287c-.006.192-.011.386,0,.578.01.173-.065.214-.224.214-1.168,0-2.336,0-3.5,0Z" transform="translate(-1103.839 -1228.311)" fill="#2862ac"/>
      <path id="Контур_3974" data-name="Контур 3974" d="M1160.707,1217.988a.194.194,0,0,1-.129-.078c-.371-.37-.74-.743-1.113-1.11-.083-.082-.082-.14,0-.223q.567-.557,1.125-1.124c.078-.079.133-.074.208,0q.552.56,1.111,1.112c.088.087.09.15,0,.239-.374.367-.742.74-1.113,1.11A.932.932,0,0,1,1160.707,1217.988Z" transform="translate(-1149.941 -1211.628)" fill="#2862ac"/>
    </g>
    <g id="Сгруппировать_17" data-name="Сгруппировать 17" transform="translate(1008.362 1093.082)">
      <path id="Контур_42" data-name="Контур 42" d="M1027.743,1094.872a7.189,7.189,0,0,1,2.809.5c.028.014,2.871,1.3,5.974,3.132s5.617,3.693,5.641,3.712a8.493,8.493,0,0,1,2.836,5.017c0,.031.331,3.191.331,6.849s-.328,6.82-.331,6.851a8.481,8.481,0,0,1-2.836,5.017c-.025.019-2.541,1.891-5.642,3.717s-5.945,3.114-5.972,3.126a8.117,8.117,0,0,1-5.621,0c-.028-.012-2.863-1.3-5.973-3.126s-5.618-3.7-5.644-3.718a8.487,8.487,0,0,1-2.837-5.015c0-.033-.331-3.192-.331-6.852s.328-6.818.331-6.849a8.488,8.488,0,0,1,2.837-5.018c.025-.019,2.53-1.88,5.642-3.713s5.945-3.117,5.973-3.13a7.2,7.2,0,0,1,2.81-.5m0-1.786a8.928,8.928,0,0,0-3.545.66s-2.914,1.314-6.146,3.22-5.8,3.818-5.8,3.818a10.287,10.287,0,0,0-3.542,6.261s-.341,3.231-.341,7.038.341,7.039.341,7.039a10.285,10.285,0,0,0,3.545,6.261s2.574,1.918,5.8,3.823,6.147,3.216,6.147,3.216a9.847,9.847,0,0,0,7.09,0s2.914-1.314,6.144-3.217,5.805-3.823,5.805-3.823a10.288,10.288,0,0,0,3.544-6.262s.342-3.231.342-7.039-.342-7.038-.342-7.038a10.284,10.284,0,0,0-3.545-6.263s-2.573-1.917-5.8-3.819-6.144-3.218-6.144-3.218a8.932,8.932,0,0,0-3.543-.66" transform="translate(-1008.362 -1093.082)" fill="#2862ac" fill-rule="evenodd"/>
    </g>
  </g>
</svg>
